<?xml version="1.0" standalone="no"?>
<!DOCTYPE svg PUBLIC "-//W3C//DTD SVG 20010904//EN"
 "http://www.w3.org/TR/2001/REC-SVG-20010904/DTD/svg10.dtd">
<svg version="1.0" xmlns="http://www.w3.org/2000/svg"
 width="1000.000000pt" height="1000.000000pt" viewBox="0 0 1000.000000 1000.000000"
 preserveAspectRatio="xMidYMid meet">

<g transform="translate(0.000000,1000.000000) scale(0.100000,-0.100000)"
fill="#000000" stroke="none">
<path d="M4980 9651 l-45 -7 32 -7 c17 -5 37 -14 43 -22 6 -7 14 -74 17 -153
l6 -140 -39 -5 c-21 -4 -118 -9 -215 -13 l-176 -6 -7 137 c-6 116 -4 141 9
161 8 13 24 24 35 24 11 0 20 5 20 11 0 9 -20 10 -67 6 -38 -4 -88 -7 -113 -7
l-45 -1 37 -19 c28 -15 38 -28 42 -53 10 -63 27 -563 20 -581 -4 -10 -21 -24
-38 -32 -28 -12 -22 -13 81 -14 64 0 114 4 118 10 3 6 -4 10 -18 10 -49 0 -62
31 -67 169 -3 69 -3 130 0 134 9 11 411 30 420 20 12 -13 19 -258 8 -277 -6
-10 -24 -24 -42 -32 -30 -13 -27 -13 49 -13 44 0 98 3 120 8 39 7 39 7 13 14
-51 14 -55 31 -68 333 -7 155 -9 291 -5 303 3 12 21 28 38 35 31 14 29 14 -43
14 -41 -1 -95 -4 -120 -7z"/>
<path d="M5360 9636 c0 -3 16 -12 35 -20 19 -8 38 -23 42 -32 3 -10 -7 -146
-22 -303 -27 -263 -31 -288 -52 -308 -12 -13 -35 -23 -50 -24 -58 -1 10 -18
117 -28 107 -10 131 -8 89 8 -13 5 -32 18 -42 29 -17 19 -17 31 12 313 28 268
33 296 52 312 12 9 35 17 53 18 30 1 30 1 5 9 -14 4 -61 10 -105 14 -43 4 -91
9 -106 12 -16 3 -28 3 -28 0z"/>
<path d="M5757 9586 c17 -15 36 -41 42 -59 6 -17 38 -178 71 -357 34 -179 63
-332 66 -340 5 -12 9 -10 22 10 33 48 415 524 440 547 16 15 37 23 60 23 54 0
27 15 -70 39 -107 26 -117 26 -87 2 21 -17 23 -23 13 -48 -11 -30 -322 -453
-333 -453 -7 0 -82 498 -81 541 0 30 17 49 44 49 40 0 0 18 -89 39 -49 12 -99
24 -110 27 -14 4 -11 -2 12 -20z"/>
<path d="M3920 9534 c-216 -57 -329 -219 -291 -415 38 -193 152 -300 325 -308
44 -2 105 2 135 9 117 26 227 103 269 187 17 35 18 44 6 111 -7 41 -15 76 -18
80 -3 3 -6 -26 -6 -64 -1 -118 -51 -192 -168 -247 -67 -31 -168 -46 -235 -33
-52 10 -125 63 -163 120 -44 67 -77 192 -70 266 7 74 28 122 77 175 55 60 123
87 231 93 75 4 93 1 132 -18 42 -20 83 -58 105 -98 5 -9 12 -15 15 -12 2 3
-10 39 -28 80 -24 57 -38 76 -56 81 -44 12 -204 8 -260 -7z"/>
<path d="M6610 9365 c0 -4 10 -15 21 -24 12 -9 22 -28 22 -42 0 -24 -200 -503
-229 -546 -11 -18 -24 -23 -57 -23 -37 -1 -19 -10 166 -90 115 -50 216 -90
226 -90 16 0 121 98 121 112 0 4 -22 -7 -50 -24 -43 -27 -56 -30 -102 -26 -49
4 -222 70 -233 89 -4 6 98 256 109 267 7 6 192 -80 203 -95 7 -9 10 -28 8 -42
-3 -14 10 6 29 44 41 84 44 96 13 67 -13 -12 -27 -22 -33 -22 -5 0 -53 19
-107 42 -78 33 -96 45 -92 58 20 64 106 246 117 248 15 3 212 -81 235 -99 7
-6 13 -28 14 -48 l0 -36 24 54 c14 29 23 57 20 61 -3 4 -21 11 -41 14 -19 4
-108 39 -197 77 -89 39 -168 73 -174 76 -7 3 -13 2 -13 -2z"/>
<path d="M3174 9259 c-43 -8 -312 -124 -329 -142 -7 -7 -4 -8 8 -4 46 17 62
-8 182 -272 64 -141 119 -270 122 -286 6 -38 -14 -57 -78 -74 -38 -11 -52 -10
-80 2 -19 7 -186 111 -371 229 -185 119 -339 214 -342 211 -2 -3 0 -17 5 -31
20 -61 159 -747 159 -787 0 -28 -7 -51 -21 -69 -12 -15 -19 -29 -17 -31 2 -2
44 24 93 58 85 60 87 62 57 65 -18 2 -36 11 -41 21 -8 14 -34 109 -55 203 -6
25 2 32 118 112 69 47 131 86 138 86 7 -1 54 -29 103 -64 90 -62 112 -93 86
-119 -6 -6 -11 -15 -11 -20 0 -4 47 24 104 62 57 39 109 71 117 71 8 1 57 21
109 45 86 40 92 45 59 45 -22 0 -42 7 -51 18 -15 16 -260 553 -255 558 1 1 35
16 76 33 121 51 196 39 241 -40 28 -51 29 -131 3 -168 -11 -14 -48 -42 -84
-61 l-64 -34 52 -7 c37 -5 83 -24 160 -67 177 -100 207 -107 300 -76 62 21 81
39 32 30 -45 -8 -78 4 -251 89 l-137 67 34 35 c43 44 59 91 53 154 -11 113
-107 180 -224 158z m-648 -566 c85 -59 153 -110 152 -115 -2 -4 -52 -42 -113
-83 -96 -66 -111 -74 -117 -58 -4 10 -23 88 -43 173 -20 85 -38 163 -41 173
-3 9 -2 17 2 17 3 0 76 -48 160 -107z"/>
<path d="M7067 8852 c-22 -24 -21 -45 1 -65 27 -24 59 -21 78 8 15 23 15 27 0
50 -20 30 -56 33 -79 7z"/>
<path d="M7420 8841 c-138 -45 -238 -160 -260 -298 -30 -185 113 -385 315
-437 80 -21 130 -20 211 5 59 18 77 30 134 88 88 87 113 150 108 266 -4 107
-44 191 -126 266 -85 78 -166 112 -272 116 -47 1 -96 -1 -110 -6z m268 -70
c24 -12 61 -38 82 -57 96 -87 121 -233 62 -356 -42 -89 -91 -142 -169 -180
-90 -44 -181 -46 -265 -5 -112 55 -173 153 -173 278 0 65 5 85 33 141 39 81
120 158 195 187 68 28 173 24 235 -8z"/>
<path d="M8216 8350 c13 -24 13 -33 2 -53 -7 -13 -105 -112 -218 -220 -171
-164 -210 -197 -234 -197 -16 0 -38 7 -48 17 -10 9 -18 12 -18 7 0 -5 39 -48
86 -94 53 -53 79 -74 68 -54 -10 18 -15 40 -11 55 3 13 51 65 105 116 l99 92
77 -78 c74 -77 88 -105 64 -129 -6 -6 -9 -14 -6 -17 7 -7 108 83 108 96 0 6
-9 5 -20 -1 -12 -6 -29 -9 -38 -6 -19 6 -152 149 -152 163 0 5 47 53 104 106
l104 96 91 -94 c73 -76 91 -100 91 -124 0 -16 -4 -33 -10 -36 -5 -3 -10 -11
-10 -18 0 -6 19 8 43 31 l43 42 -164 165 c-90 91 -166 165 -167 165 -2 0 3
-13 11 -30z"/>
<path d="M2080 8290 c-11 -11 -20 -27 -20 -35 0 -19 36 -55 55 -55 19 0 55 36
55 55 0 19 -36 55 -55 55 -8 0 -24 -9 -35 -20z"/>
<path d="M1700 8194 c-85 -31 -143 -81 -292 -251 -81 -92 -145 -169 -143 -171
2 -2 14 4 28 12 18 13 31 14 50 7 23 -9 416 -344 445 -380 9 -10 12 -31 9 -55
l-6 -39 24 24 c101 104 271 314 298 369 28 57 32 74 32 150 0 104 -23 158
-101 235 -100 98 -237 138 -344 99z m178 -80 c126 -63 212 -183 212 -298 0
-83 -29 -139 -130 -256 -45 -52 -86 -99 -90 -103 -6 -7 -274 217 -434 364
l-50 46 73 84 c144 164 183 188 297 189 56 0 81 -5 122 -26z"/>
<path d="M8886 7760 c18 -60 10 -72 -105 -147 -268 -175 -469 -301 -488 -307
-22 -7 -62 8 -75 28 -4 6 -9 8 -12 6 -6 -6 116 -199 126 -200 4 0 3 11 -2 25
-17 46 3 71 124 149 63 41 124 80 136 86 25 14 23 16 95 -103 49 -79 49 -80
32 -109 l-17 -29 39 22 c21 12 51 31 67 44 l28 22 -30 -4 c-35 -5 -51 10 -117
114 -54 85 -66 66 123 187 l135 86 72 -113 c40 -61 73 -119 73 -127 0 -9 -8
-27 -17 -40 l-17 -25 24 16 c14 9 35 22 48 30 12 8 22 18 22 22 0 5 -18 29
-39 55 -21 26 -78 108 -126 182 -93 145 -112 171 -99 130z"/>
<path d="M8392 7738 c-20 -20 -15 -66 9 -78 30 -17 68 -4 75 24 9 36 -12 66
-44 66 -16 0 -33 -5 -40 -12z"/>
<path d="M1096 7524 c-26 -47 -45 -88 -43 -91 3 -2 10 5 17 16 22 41 63 27
280 -93 113 -63 204 -118 202 -122 -1 -5 -174 -64 -384 -130 -210 -67 -384
-126 -386 -132 -1 -5 11 -15 29 -21 17 -6 146 -75 286 -152 179 -100 258 -149
266 -166 15 -34 -13 -89 -55 -108 -19 -8 -170 -30 -353 -50 -176 -20 -335 -39
-353 -43 l-33 -7 73 -64 c40 -35 160 -145 267 -244 187 -174 231 -227 217
-263 -3 -8 -2 -14 2 -14 4 0 18 35 31 78 38 124 38 114 5 97 -33 -17 -47 -10
-134 67 l-54 47 36 113 c20 62 39 123 43 136 9 30 37 40 128 43 76 3 107 -8
107 -37 0 -39 20 -4 45 79 15 50 51 135 79 187 47 88 48 93 22 72 -16 -12 -35
-22 -44 -22 -27 0 -454 243 -440 251 7 4 175 57 373 119 198 61 373 116 389
122 l29 12 -74 35 c-153 75 -501 275 -516 298 -9 14 -13 33 -9 48 4 14 5 25 3
25 -2 0 -25 -39 -51 -86z m-72 -1129 c-4 -25 -67 -221 -74 -228 -7 -8 -255
197 -255 212 0 6 270 30 310 27 11 -1 19 -6 19 -11z"/>
<path d="M8482 6924 c2 -6 21 -53 43 -104 31 -72 41 -87 43 -67 5 42 22 48
128 45 l99 -3 56 -130 56 -130 -45 -53 c-25 -29 -59 -63 -75 -74 -29 -21 -31
-21 -60 -5 -19 12 -27 13 -24 5 3 -7 24 -55 46 -105 23 -51 50 -134 61 -184
22 -102 30 -120 30 -67 0 45 23 65 86 77 27 6 133 28 236 50 103 23 190 41
193 41 9 0 -5 -24 -217 -371 -109 -180 -198 -331 -198 -337 0 -6 36 -1 88 13
184 48 531 117 556 111 14 -3 32 -19 40 -34 19 -35 19 -25 -3 81 -20 94 -31
119 -31 69 0 -32 -18 -57 -48 -66 -27 -8 -443 -96 -453 -96 -5 0 -9 4 -9 8 0
5 92 161 205 347 113 186 205 344 205 351 0 10 -9 10 -42 -1 -61 -20 -553
-125 -587 -125 -53 0 -86 71 -58 126 8 16 119 144 246 283 127 140 231 259
231 263 0 4 -42 8 -92 9 -51 0 -213 4 -359 8 -275 9 -296 12 -332 55 -10 11
-17 16 -15 10z m688 -122 c0 -4 -53 -60 -118 -125 l-118 -118 -52 117 c-28 64
-49 121 -46 126 6 10 334 11 334 0z"/>
<path d="M712 5894 c-27 -18 -29 -55 -4 -77 24 -22 45 -21 65 1 23 26 21 58
-5 76 -12 9 -25 16 -28 16 -3 0 -16 -7 -28 -16z"/>
<path d="M406 5715 c-18 -187 -18 -183 -1 -152 9 15 24 27 34 27 11 0 52 -24
92 -53 187 -135 209 -151 209 -157 0 -3 -72 -38 -160 -78 -131 -59 -164 -71
-180 -62 -11 6 -20 21 -20 33 -1 17 -2 19 -9 7 -5 -8 -11 -69 -15 -135 -4 -93
-3 -112 5 -83 6 20 18 43 28 52 9 8 100 59 201 112 l185 96 115 -6 c128 -8
151 -17 167 -68 9 -30 10 -24 17 57 4 50 10 103 13 119 3 19 2 26 -6 22 -6 -4
-11 -14 -11 -21 0 -8 -11 -22 -24 -31 -22 -14 -39 -14 -137 -4 -62 6 -117 14
-123 17 -39 23 -328 259 -340 279 -9 13 -20 41 -25 61 -8 36 -8 35 -15 -32z"/>
<path d="M9189 5374 c-107 -32 -193 -122 -225 -231 -12 -40 -15 -84 -12 -157
4 -118 30 -186 97 -259 l42 -45 85 -3 c67 -3 88 -8 98 -21 7 -10 15 -18 17
-18 2 0 3 37 1 82 -3 71 -5 78 -16 57 -11 -22 -18 -24 -100 -27 -103 -3 -118
5 -164 93 -24 45 -27 61 -27 155 0 89 3 111 22 146 36 67 70 101 131 131 52
26 66 28 172 28 99 0 122 -4 167 -24 64 -28 124 -91 148 -154 14 -36 16 -67
13 -144 -6 -139 -39 -197 -138 -243 l-45 -20 65 6 c36 4 72 10 81 15 26 13 58
102 70 190 24 174 -35 331 -151 404 -83 53 -231 70 -331 39z"/>
<path d="M1038 5030 c-3 -8 -9 -28 -13 -45 -4 -20 -49 -73 -137 -162 l-131
-132 -21 42 c-33 65 -85 100 -156 105 -72 5 -109 -8 -150 -54 -52 -60 -60
-141 -36 -374 9 -91 13 -108 20 -83 4 17 14 37 22 44 9 7 119 21 277 35 334
30 342 30 361 2 24 -33 20 -99 -6 -136 -19 -26 -390 -337 -520 -436 -21 -16
-38 -32 -38 -37 0 -4 21 -11 48 -14 184 -27 671 -119 691 -132 38 -25 26 -85
-54 -253 -38 -80 -70 -147 -72 -149 -1 -2 -19 11 -39 28 -46 41 -73 51 -133
51 -68 0 -129 -34 -159 -91 -39 -73 -29 -134 53 -314 72 -157 92 -192 81 -139
-5 22 -2 37 11 52 20 24 523 262 554 262 11 0 32 -12 46 -27 30 -33 31 -34
-26 91 -24 53 -47 96 -52 96 -4 0 -5 -9 -2 -20 14 -51 -1 -64 -149 -134 -79
-37 -204 -96 -278 -131 l-135 -63 -34 70 c-45 92 -51 151 -19 198 32 48 101
83 154 77 59 -6 88 -30 126 -103 18 -35 35 -64 38 -64 3 0 5 22 6 49 1 40 12
69 68 169 39 70 71 143 78 175 10 48 9 62 -15 138 -14 46 -31 104 -38 129 -15
55 -29 73 -29 37 0 -42 -27 -50 -125 -36 -47 7 -89 17 -94 23 -5 6 -25 70 -45
141 l-35 130 37 33 c42 37 121 92 134 92 4 0 17 -9 28 -20 11 -11 21 -20 23
-20 2 0 -9 51 -25 113 -18 72 -30 153 -34 230 -3 64 -10 117 -15 117 -5 0 -9
-11 -9 -23 0 -52 -17 -56 -335 -84 -249 -21 -299 -23 -306 -12 -5 8 -9 53 -9
100 0 73 3 91 23 120 42 63 127 86 202 55 46 -20 72 -66 81 -143 7 -69 18 -88
27 -45 8 40 36 72 147 167 123 106 153 158 148 256 -2 35 -6 57 -10 49z m-102
-1136 c18 -65 32 -120 31 -121 -4 -3 -328 44 -332 49 -6 6 249 198 260 194 5
-1 24 -56 41 -122z"/>
<path d="M9626 4476 c-8 -19 -28 -42 -44 -50 -75 -39 -380 -156 -406 -156 -15
0 -68 7 -117 16 -96 18 -138 41 -140 77 -1 26 -23 -59 -34 -130 l-7 -48 22 23
c25 27 52 27 177 3 l92 -18 155 -147 c120 -114 158 -157 172 -191 9 -24 13
-52 10 -62 -5 -12 -4 -14 2 -8 9 10 42 173 42 205 -1 12 -3 11 -11 -2 -21 -37
-54 -20 -188 98 -73 64 -129 120 -124 125 13 13 304 109 330 109 16 0 27 -7
30 -20 11 -40 21 -18 38 78 9 53 19 105 21 115 9 30 -5 18 -20 -17z"/>
<path d="M9484 3706 c-16 -41 -56 -48 -421 -71 -195 -12 -355 -24 -357 -26 -3
-2 104 -114 236 -248 132 -134 249 -258 259 -275 10 -17 19 -47 19 -66 1 -30
7 -20 40 64 39 100 44 120 20 91 -30 -37 -56 -19 -264 178 -112 105 -204 195
-205 198 -1 8 240 19 424 19 162 0 170 -2 177 -49 2 -17 15 7 45 84 23 60 40
111 38 114 -3 2 -7 -4 -11 -13z"/>
<path d="M8551 3223 c-19 -32 -40 -67 -47 -78 -12 -19 -11 -20 23 -20 33 0 42
-7 85 -60 27 -33 51 -70 54 -82 4 -15 -15 -56 -66 -140 -40 -65 -74 -119 -75
-121 -7 -8 -172 22 -192 34 -12 8 -23 24 -25 36 -2 18 -15 2 -60 -72 -32 -52
-85 -126 -119 -163 -34 -37 -59 -70 -57 -73 3 -2 11 2 18 11 7 8 25 15 41 15
23 0 54 -22 142 -101 181 -164 249 -232 238 -238 -5 -4 -189 -19 -408 -35
-219 -16 -400 -31 -403 -33 -3 -3 11 -17 30 -32 19 -14 130 -113 247 -219 223
-203 230 -212 202 -265 l-12 -22 23 20 c12 11 45 47 73 79 48 55 49 58 20 42
-19 -10 -39 -13 -51 -8 -24 8 -372 322 -372 334 0 4 6 8 13 8 68 1 800 60 805
65 4 4 -7 16 -23 28 -32 23 -172 148 -352 315 -100 92 -113 108 -113 137 0 42
47 85 92 85 17 0 184 -18 371 -41 186 -22 341 -38 344 -35 3 2 -13 28 -34 58
-22 29 -114 164 -206 300 -138 205 -166 253 -169 288 l-3 41 -34 -58z m268
-442 c45 -63 80 -116 78 -117 -2 -2 -73 8 -158 21 -85 14 -157 25 -161 25 -16
0 -6 24 54 126 l62 105 22 -23 c12 -13 59 -74 103 -137z"/>
<path d="M1459 2900 c-90 -47 -117 -129 -83 -248 7 -23 6 -24 -22 -9 -74 38
-132 28 -188 -32 -40 -42 -47 -118 -17 -187 22 -49 172 -277 178 -270 2 2 -1
16 -7 31 -19 49 -26 43 393 328 54 37 107 67 119 67 12 0 33 -10 46 -22 39
-36 22 -4 -68 127 -100 146 -121 169 -185 206 -59 34 -113 37 -166 9z m185
-73 c43 -24 143 -157 132 -175 -4 -6 -120 -88 -258 -183 l-251 -172 -18 24
c-31 40 -69 121 -69 148 0 36 34 87 72 112 25 15 45 19 82 16 44 -4 55 -10 98
-56 27 -28 51 -51 54 -51 2 0 -12 29 -32 64 -66 121 -54 211 35 267 55 35 101
37 155 6z"/>
<path d="M1960 2479 c0 -3 7 -21 16 -38 13 -25 14 -38 6 -56 -13 -28 -414
-386 -447 -399 -17 -7 -32 -4 -60 14 -33 21 -36 21 -26 4 6 -10 47 -57 91
-104 69 -73 78 -80 63 -47 -12 27 -14 44 -7 61 12 30 421 394 452 402 16 5 33
-1 52 -15 61 -45 45 -22 -102 143 -20 22 -37 38 -38 35z"/>
<path d="M2145 2149 c-90 -52 -101 -63 -41 -43 30 10 66 15 96 12 51 -5 93
-32 199 -126 l43 -39 -202 -229 c-272 -308 -278 -314 -313 -314 -15 0 -37 5
-48 10 -30 17 -22 2 18 -33 21 -18 61 -53 89 -79 55 -51 75 -62 50 -26 -25 35
-19 73 17 115 181 211 424 476 443 485 18 8 31 8 50 -1 15 -6 28 -10 31 -8 5
5 -345 317 -355 316 -4 0 -38 -18 -77 -40z"/>
<path d="M7226 1730 c-169 -60 -286 -198 -286 -339 0 -37 9 -65 42 -124 23
-43 43 -76 44 -74 2 1 -8 33 -21 70 -61 166 -3 311 157 398 57 31 71 34 143
34 71 0 89 -4 147 -33 83 -41 154 -116 203 -215 81 -165 65 -304 -46 -415
-108 -106 -259 -129 -371 -56 -21 13 -38 21 -38 17 0 -5 24 -34 53 -66 49 -53
56 -57 88 -52 131 22 234 72 315 150 95 94 139 224 115 346 -28 143 -134 284
-257 341 -90 42 -200 49 -288 18z"/>
<path d="M7792 1708 c-28 -28 -2 -88 38 -88 40 0 66 60 38 88 -7 7 -24 12 -38
12 -14 0 -31 -5 -38 -12z"/>
<path d="M2770 1645 c-70 -57 -74 -69 -13 -38 69 35 110 28 233 -41 55 -32
100 -59 100 -60 0 -8 -133 -232 -143 -243 -9 -9 -34 2 -105 44 -92 54 -94 56
-90 89 2 19 1 34 -2 34 -8 0 -83 -131 -77 -136 2 -2 12 5 22 16 10 11 22 20
28 20 13 0 185 -99 192 -110 6 -10 -126 -241 -142 -247 -6 -3 -60 24 -120 59
l-108 64 0 42 c0 23 -2 42 -5 42 -7 0 -63 -101 -58 -104 1 -2 32 -16 68 -33
36 -16 128 -67 204 -112 77 -44 141 -80 143 -78 1 2 -8 14 -22 27 -14 13 -25
32 -25 43 0 21 271 497 298 524 10 10 29 14 54 11 28 -3 35 -1 25 8 -21 19
-378 224 -390 224 -7 -1 -37 -21 -67 -45z"/>
<path d="M2432 1504 c-47 -33 -9 -107 46 -88 33 12 42 56 16 85 -21 23 -33 24
-62 3z"/>
<path d="M6748 1442 c-49 -20 -88 -39 -88 -44 0 -5 4 -7 8 -4 5 3 18 -2 30
-10 20 -14 22 -24 22 -113 l0 -98 -137 -56 -138 -55 -63 61 c-66 65 -82 98
-63 129 6 10 10 18 8 18 -2 0 -43 -16 -93 -36 -92 -37 -123 -55 -82 -47 13 2
37 -4 55 -14 18 -10 145 -126 283 -258 138 -132 256 -242 262 -244 6 -2 8 4 4
15 -3 11 3 175 13 365 20 351 27 399 63 412 7 2 11 6 8 9 -3 3 -44 -11 -92
-30z m-34 -479 c-4 -93 -8 -169 -9 -171 -1 -1 -54 53 -118 121 l-117 124 113
46 c61 25 118 46 125 46 10 1 12 -32 6 -166z"/>
<path d="M3334 1387 c14 -14 26 -32 26 -39 0 -27 -196 -549 -214 -569 -12 -15
-26 -20 -47 -17 -16 3 -29 2 -29 -1 0 -6 200 -81 215 -81 3 0 -7 12 -24 26
-17 14 -31 32 -31 40 0 14 88 265 96 273 3 3 395 -137 402 -144 4 -4 -74 -219
-90 -250 -15 -28 -28 -35 -68 -35 -30 -1 -23 -6 54 -36 49 -19 100 -37 115
-41 l26 -6 -27 22 c-17 13 -28 32 -28 46 0 30 187 545 205 564 7 7 28 16 46
20 31 6 27 9 -68 44 -116 43 -125 45 -89 16 17 -13 26 -30 26 -49 0 -23 -74
-245 -86 -259 -3 -3 -394 137 -402 145 -6 4 77 226 93 251 10 15 27 23 52 25
37 3 35 4 -46 36 -45 17 -94 35 -108 38 l-25 7 26 -26z"/>
<path d="M5707 1129 c-105 -25 -219 -117 -263 -213 -70 -153 -22 -335 115
-436 211 -157 553 -50 626 195 57 188 -56 395 -244 449 -59 17 -173 20 -234 5z
m219 -48 c159 -71 237 -290 162 -462 -32 -75 -111 -142 -192 -164 -218 -59
-399 96 -398 341 1 121 54 215 151 267 90 49 190 56 277 18z"/>
<path d="M4271 1097 c21 -14 35 -32 37 -48 3 -21 -102 -674 -112 -705 -3 -8
-37 -6 -118 8 -126 22 -157 39 -159 92 l-1 31 -8 -28 c-5 -15 -10 -46 -12 -70
l-3 -42 85 -6 c113 -9 489 -74 535 -93 34 -15 36 -14 44 7 4 12 11 42 14 67 7
45 7 45 -9 17 -24 -44 -50 -48 -175 -27 -61 11 -113 21 -115 23 -2 1 23 162
56 356 63 379 67 391 124 391 53 1 9 16 -95 34 -124 21 -128 20 -88 -7z"/>
</g>
</svg>
